<svg xmlns="http://www.w3.org/2000/svg" width="40" height="48" viewBox="0 0 51 54" fill="none">
  <path d="M28.2445 12.8667C28.2445 13.8424 27.4535 14.6333 26.4778 14.6333H12.3583C11.3826 14.6333 10.5917 13.8424 10.5917 12.8667C10.5917 11.891 11.3826 11.1 12.3583 11.1H26.4778C27.4535 11.1 28.2445 11.891 28.2445 12.8667ZM3.53056 40.9C3.53056 42.0046 4.42599 42.9 5.53056 42.9H19.4567C20.7698 42.9 21.624 44.2816 21.0371 45.4562C20.7379 46.055 20.1261 46.4333 19.4567 46.4333H2C0.895429 46.4333 0 45.5379 0 44.4333V2.5C0 1.39543 0.895431 0.5 2 0.5H36.8361C37.9407 0.5 38.8361 1.39543 38.8361 2.5V16.4014C38.8361 17.3763 38.0458 18.1667 37.0709 18.1667C36.0959 18.1667 35.3056 17.3763 35.3056 16.4014V6.03333C35.3056 4.92876 34.4101 4.03333 33.3056 4.03333H5.53056C4.42599 4.03333 3.53056 4.92876 3.53056 6.03333V40.9ZM10.5917 34.0667C10.5917 33.091 11.3826 32.3 12.3583 32.3H24.7525C26.0656 32.3 26.9198 33.6816 26.3329 34.8562C26.0338 35.455 25.4219 35.8333 24.7525 35.8333H12.3583C11.3826 35.8333 10.5917 35.0424 10.5917 34.0667ZM22.9472 21.7C23.9229 21.7 24.7139 22.491 24.7139 23.4667C24.7139 24.4424 23.9229 25.2333 22.9472 25.2333H12.3583C11.3826 25.2333 10.5917 24.4424 10.5917 23.4667C10.5917 22.491 11.3826 21.7 12.3583 21.7H22.9472ZM50.6138 48.3932C50.8713 48.9085 51 49.433 51 49.9667C51 50.4451 50.9081 50.896 50.7242 51.3193C50.5403 51.7425 50.292 52.1198 49.9795 52.451C49.6668 52.7823 49.2899 53.0399 48.8486 53.224C48.4072 53.408 47.9475 53.5 47.4694 53.5H26.6723C26.1942 53.5 25.7436 53.408 25.3207 53.224C24.8978 53.0399 24.5208 52.7915 24.1898 52.4786C23.8588 52.1658 23.6014 51.7885 23.4175 51.3469C23.2336 50.9052 23.1417 50.4451 23.1417 49.9667C23.1417 49.433 23.2704 48.9085 23.5279 48.3932L31.5641 32.308C31.7028 32.0304 31.775 31.7244 31.775 31.4141V26.9986C31.775 26.0237 30.9847 25.2333 30.0097 25.2333C29.0348 25.2333 28.2445 24.4423 28.2445 23.4674C28.2445 22.4917 29.0354 21.7 30.0111 21.7H44.1306C45.1063 21.7 45.8972 22.4917 45.8972 23.4674C45.8972 24.4423 45.1069 25.2333 44.132 25.2333C43.157 25.2333 42.3667 26.0237 42.3667 26.9986V31.4141C42.3667 31.7244 42.4389 32.0304 42.5775 32.308L50.6138 48.3932ZM40.7 42.9C42.1875 42.9 43.1544 41.3341 42.4882 40.0042L39.048 33.1369C38.9087 32.8588 38.8361 32.5521 38.8361 32.2411V26.9986C38.8361 26.0237 38.0458 25.2333 37.0709 25.2333C36.0959 25.2333 35.3056 26.0237 35.3056 26.9986V32.2411C35.3056 32.5521 35.233 32.8588 35.0937 33.1369L31.6535 40.0042C30.9873 41.3341 31.9542 42.9 33.4417 42.9H40.7Z" fill="#1885EA"></path>
</svg>